<?xml version="1.0" encoding="iso-8859-1"?>
<!-- Generator: Adobe Illustrator 19.0.0, SVG Export Plug-In . SVG Version: 6.00 Build 0)  -->
<svg version="1.1" id="Capa_1" xmlns="http://www.w3.org/2000/svg" xmlns:xlink="http://www.w3.org/1999/xlink" x="0px" y="0px"
	 viewBox="0 0 512 512" style="enable-background:new 0 0 512 512;" xml:space="preserve">
<g>
	<g>
		<path d="M505.364,320.913l-11.536-104.845c-1.93-18.282-18.34-31.675-36.795-30.353c-0.472,0.005-0.939,0.031-1.411,0.079
			c-19.232,1.92-33.317,19.064-31.418,38.038c2.114,23.69,5.97,63.098,7.365,77.251l-20.679,33.81l8.918-20.957
			c6.841-16.619-0.079-35.552-16.105-44.039c-0.22-0.115-0.441-0.226-0.666-0.331c-16.047-7.554-35.253-1.862-44.873,13.524
			l-45.471,76.312c-4.706,7.533-6.772,15.607-6.001,23.365l8.372,114.644c0.598,8.22,7.449,14.589,15.696,14.589h87.087
			c4.559,0,8.892-1.978,11.887-5.419c2.985-3.447,4.333-8.016,3.698-12.527l-7.465-52.695l71.449-92.275
			C503.392,341.398,506.303,331.242,505.364,320.913z M472.546,329.773l-75.541,97.574c-2.602,3.363-3.735,7.633-3.142,11.845
			l5.854,41.332H345.39l-7.329-100.291c-0.016-0.194-0.031-0.388-0.058-0.582c-0.042-0.399,0.189-1.663,1.553-3.851l45.466-76.307
			c0.955-1.537,2.681-2.156,4.265-1.589c1.579,1.023,1.92,2.791,1.474,3.871l-20.984,49.306c-2.009,4.732-1.589,10.146,1.133,14.5
			c2.728,4.359,7.402,7.113,12.538,7.381l30.426,1.579c5.624,0.278,11.232-2.586,14.243-7.507l33.054-54.038
			c1.789-2.922,2.571-6.353,2.235-9.763c-0.052-0.53-5.267-53.241-7.869-82.376c-0.168-1.684,1.112-3.315,2.812-3.693
			c0.31-0.01,0.614-0.031,0.923-0.063c1.794-0.189,3.095,0.776,3.253,2.324l11.515,104.614
			C474.224,326.085,473.632,328.378,472.546,329.773z"/>
	</g>
</g>
<g>
	<g>
		<path d="M199.497,359.145l-45.812-76.868c-9.432-15.103-28.648-20.789-44.7-13.246c-0.22,0.105-0.441,0.22-0.661,0.331
			c-16.026,8.488-22.951,27.415-16.037,44.202l8.845,20.784l-20.674-33.799c1.39-14.148,5.246-53.529,7.344-77.083
			c0.929-9.28-1.862-18.382-7.864-25.631c-5.944-7.187-14.306-11.651-23.538-12.574c-0.472-0.047-0.944-0.073-1.416-0.079
			c-18.45-1.343-34.859,12.071-36.779,30.279L6.626,320.682c-0.908,10.03,2.004,20.191,7.963,27.845l71.99,92.842l-7.46,52.685
			c-0.64,4.517,0.708,9.086,3.698,12.527c2.99,3.441,7.323,5.419,11.882,5.419h87.082c8.273,0,15.134-6.411,15.701-14.678
			l7.848-115.132C206.096,374.437,204.024,366.384,199.497,359.145z M174.001,379.121c-0.021,0.22-0.042,0.441-0.058,0.661
			l-6.867,100.742h-54.258l5.854-41.332c0.593-4.218-0.54-8.488-3.148-11.851l-76.081-98.125c-1.065-1.364-1.652-3.651-1.5-5.393
			L49.49,218.833c0.157-1.479,1.511-2.476,3.247-2.25c0.304,0.031,0.614,0.052,0.923,0.063c1.7,0.378,2.98,2.025,2.796,3.861
			c-2.586,28.968-7.801,81.679-7.853,82.208c-0.341,3.41,0.446,6.835,2.235,9.763l33.049,54.033
			c3.011,4.931,8.556,7.869,14.237,7.507l30.426-1.574c5.136-0.268,9.815-3.022,12.538-7.376c2.723-4.359,3.148-9.778,1.133-14.505
			l-20.91-49.144c-0.509-1.238-0.168-3.016,1.406-4.039c1.6-0.546,3.3,0.031,4.097,1.306l45.812,76.868
			C173.818,377.464,174.049,378.723,174.001,379.121z"/>
	</g>
</g>
<g>
	<g>
		<path d="M337.584,97.574v131.672H174.961V97.574h-31.475v147.41c0,8.693,7.045,15.738,15.738,15.738h194.098
			c8.693,0,15.738-7.045,15.738-15.738V97.574H337.584z"/>
	</g>
</g>
<g>
	<g>
		<path d="M403.641,115.263L266.198,3.525c-5.781-4.7-14.069-4.7-19.856,0L108.9,115.263c-6.746,5.482-7.764,15.391-2.282,22.138
			c5.477,6.741,15.391,7.759,22.138,2.282L256.268,36.018L383.78,139.688c2.922,2.371,6.432,3.525,9.92,3.525
			c4.574,0,9.112-1.988,12.228-5.813C411.405,130.66,410.382,120.745,403.641,115.263z"/>
	</g>
</g>
<g>
</g>
<g>
</g>
<g>
</g>
<g>
</g>
<g>
</g>
<g>
</g>
<g>
</g>
<g>
</g>
<g>
</g>
<g>
</g>
<g>
</g>
<g>
</g>
<g>
</g>
<g>
</g>
<g>
</g>
</svg>
